<svg width="347" height="52" viewBox="0 0 347 52" fill="none" xmlns="http://www.w3.org/2000/svg">
<g filter="url(#filter0_d_3_15871)">
<rect x="2" y="1" width="343" height="48" rx="6" fill="#437EF7"/>
<path d="M152.576 30V19.0909H154.552V28.3434H159.357V30H152.576ZM164.556 30.1598C163.757 30.1598 163.064 29.984 162.478 29.6325C161.892 29.2809 161.438 28.7891 161.115 28.157C160.795 27.5249 160.635 26.7862 160.635 25.9411C160.635 25.0959 160.795 24.3555 161.115 23.7198C161.438 23.0842 161.892 22.5906 162.478 22.239C163.064 21.8874 163.757 21.7116 164.556 21.7116C165.355 21.7116 166.047 21.8874 166.633 22.239C167.219 22.5906 167.672 23.0842 167.991 23.7198C168.315 24.3555 168.476 25.0959 168.476 25.9411C168.476 26.7862 168.315 27.5249 167.991 28.157C167.672 28.7891 167.219 29.2809 166.633 29.6325C166.047 29.984 165.355 30.1598 164.556 30.1598ZM164.566 28.6151C165 28.6151 165.362 28.4961 165.653 28.2582C165.944 28.0167 166.161 27.6935 166.303 27.2887C166.449 26.8839 166.521 26.4329 166.521 25.9357C166.521 25.435 166.449 24.9822 166.303 24.5774C166.161 24.169 165.944 23.8441 165.653 23.6026C165.362 23.3612 165 23.2404 164.566 23.2404C164.123 23.2404 163.753 23.3612 163.458 23.6026C163.167 23.8441 162.949 24.169 162.803 24.5774C162.661 24.9822 162.59 25.435 162.59 25.9357C162.59 26.4329 162.661 26.8839 162.803 27.2887C162.949 27.6935 163.167 28.0167 163.458 28.2582C163.753 28.4961 164.123 28.6151 164.566 28.6151ZM173.671 33.2386C172.979 33.2386 172.384 33.1445 171.887 32.9563C171.389 32.7717 170.99 32.5231 170.688 32.2106C170.386 31.8981 170.177 31.5518 170.06 31.1719L171.796 30.7511C171.874 30.9109 171.988 31.0689 172.137 31.2251C172.286 31.3849 172.487 31.5163 172.739 31.6193C172.995 31.7259 173.316 31.7791 173.703 31.7791C174.25 31.7791 174.703 31.646 175.061 31.3796C175.42 31.1168 175.599 30.6836 175.599 30.0799V28.5298H175.503C175.404 28.7287 175.258 28.9329 175.067 29.1424C174.878 29.3519 174.628 29.5277 174.316 29.6697C174.007 29.8118 173.618 29.8828 173.149 29.8828C172.521 29.8828 171.951 29.7354 171.439 29.4407C170.931 29.1424 170.527 28.6985 170.225 28.109C169.926 27.516 169.777 26.7738 169.777 25.8825C169.777 24.984 169.926 24.2259 170.225 23.608C170.527 22.9865 170.933 22.516 171.445 22.1964C171.956 21.8732 172.526 21.7116 173.154 21.7116C173.634 21.7116 174.028 21.7933 174.337 21.9567C174.649 22.1165 174.898 22.31 175.083 22.5373C175.267 22.761 175.408 22.9723 175.503 23.1712H175.61V21.8182H177.512V30.1332C177.512 30.8327 177.345 31.4116 177.011 31.8697C176.677 32.3278 176.221 32.6705 175.642 32.8977C175.063 33.125 174.406 33.2386 173.671 33.2386ZM173.687 28.37C174.095 28.37 174.443 28.2706 174.731 28.0717C175.019 27.8729 175.237 27.587 175.386 27.2141C175.535 26.8413 175.61 26.3938 175.61 25.8718C175.61 25.3569 175.535 24.9059 175.386 24.5188C175.241 24.1317 175.024 23.8317 174.736 23.6186C174.452 23.402 174.103 23.2937 173.687 23.2937C173.257 23.2937 172.899 23.4055 172.611 23.6293C172.323 23.853 172.107 24.1602 171.961 24.5508C171.816 24.9379 171.743 25.3782 171.743 25.8718C171.743 26.3725 171.816 26.8111 171.961 27.1875C172.11 27.5604 172.329 27.8516 172.616 28.0611C172.908 28.267 173.264 28.37 173.687 28.37ZM183.209 30V21.8182H185.137V30H183.209ZM184.178 20.657C183.873 20.657 183.61 20.5558 183.39 20.3533C183.169 20.1474 183.059 19.9006 183.059 19.6129C183.059 19.3217 183.169 19.0749 183.39 18.8725C183.61 18.6665 183.873 18.5636 184.178 18.5636C184.487 18.5636 184.75 18.6665 184.966 18.8725C185.187 19.0749 185.297 19.3217 185.297 19.6129C185.297 19.9006 185.187 20.1474 184.966 20.3533C184.75 20.5558 184.487 20.657 184.178 20.657ZM189.048 25.206V30H187.12V21.8182H188.963V23.2085H189.059C189.247 22.7504 189.547 22.3864 189.959 22.1165C190.374 21.8466 190.887 21.7116 191.498 21.7116C192.063 21.7116 192.555 21.8324 192.974 22.0739C193.396 22.3153 193.723 22.6651 193.954 23.1232C194.188 23.5813 194.304 24.1371 194.3 24.7905V30H192.372V25.0888C192.372 24.5419 192.23 24.114 191.946 23.805C191.665 23.4961 191.276 23.3416 190.779 23.3416C190.442 23.3416 190.142 23.4162 189.879 23.5653C189.62 23.7109 189.415 23.9222 189.266 24.1992C189.121 24.4762 189.048 24.8118 189.048 25.206Z" fill="white"/>
</g>
<defs>
<filter id="filter0_d_3_15871" x="0" y="0" width="347" height="52" filterUnits="userSpaceOnUse" color-interpolation-filters="sRGB">
<feFlood flood-opacity="0" result="BackgroundImageFix"/>
<feColorMatrix in="SourceAlpha" type="matrix" values="0 0 0 0 0 0 0 0 0 0 0 0 0 0 0 0 0 0 127 0" result="hardAlpha"/>
<feOffset dy="1"/>
<feGaussianBlur stdDeviation="1"/>
<feComposite in2="hardAlpha" operator="out"/>
<feColorMatrix type="matrix" values="0 0 0 0 0.0627451 0 0 0 0 0.0941176 0 0 0 0 0.156863 0 0 0 0.04 0"/>
<feBlend mode="normal" in2="BackgroundImageFix" result="effect1_dropShadow_3_15871"/>
<feBlend mode="normal" in="SourceGraphic" in2="effect1_dropShadow_3_15871" result="shape"/>
</filter>
</defs>
</svg>
