<svg width="343" height="46" viewBox="0 0 343 46" fill="none" xmlns="http://www.w3.org/2000/svg">
<rect width="343" height="46" rx="6" fill="white"/>
<path d="M151.005 20.0898C150.955 19.6246 150.745 19.2624 150.376 19.0032C150.01 18.744 149.534 18.6143 148.949 18.6143C148.537 18.6143 148.183 18.6765 147.888 18.8008C147.594 18.9251 147.368 19.0937 147.212 19.3068C147.056 19.5199 146.976 19.7631 146.972 20.0366C146.972 20.2638 147.024 20.4609 147.127 20.6278C147.233 20.7947 147.377 20.9368 147.558 21.054C147.739 21.1676 147.94 21.2635 148.16 21.3416C148.38 21.4197 148.602 21.4854 148.826 21.5387L149.849 21.7944C150.261 21.8903 150.657 22.0199 151.037 22.1832C151.42 22.3466 151.763 22.5526 152.065 22.8011C152.37 23.0497 152.612 23.3498 152.789 23.7013C152.967 24.0529 153.055 24.4648 153.055 24.9371C153.055 25.5763 152.892 26.1392 152.565 26.6257C152.239 27.1087 151.766 27.4869 151.148 27.7603C150.534 28.0302 149.79 28.1651 148.917 28.1651C148.068 28.1651 147.331 28.0337 146.706 27.771C146.085 27.5082 145.598 27.1246 145.246 26.6204C144.898 26.1161 144.71 25.5018 144.682 24.7773H146.626C146.654 25.1573 146.772 25.4734 146.978 25.7255C147.184 25.9776 147.452 26.1658 147.782 26.2901C148.116 26.4144 148.489 26.4766 148.901 26.4766C149.33 26.4766 149.707 26.4126 150.03 26.2848C150.357 26.1534 150.612 25.9723 150.797 25.7415C150.982 25.5071 151.076 25.2337 151.079 24.9212C151.076 24.6371 150.992 24.4027 150.829 24.218C150.665 24.0298 150.436 23.8736 150.142 23.7493C149.85 23.6214 149.51 23.5078 149.119 23.4084L147.878 23.0888C146.979 22.858 146.269 22.5082 145.747 22.0394C145.229 21.5671 144.969 20.9403 144.969 20.1591C144.969 19.5163 145.143 18.9535 145.491 18.4705C145.843 17.9876 146.321 17.6129 146.924 17.3466C147.528 17.0767 148.212 16.9418 148.975 16.9418C149.749 16.9418 150.428 17.0767 151.01 17.3466C151.596 17.6129 152.056 17.984 152.39 18.4599C152.723 18.9322 152.896 19.4755 152.906 20.0898H151.005ZM154.732 28V19.8182H156.66V28H154.732ZM155.701 18.657C155.396 18.657 155.133 18.5558 154.913 18.3533C154.693 18.1474 154.583 17.9006 154.583 17.6129C154.583 17.3217 154.693 17.0749 154.913 16.8725C155.133 16.6665 155.396 16.5636 155.701 16.5636C156.01 16.5636 156.273 16.6665 156.49 16.8725C156.71 17.0749 156.82 17.3217 156.82 17.6129C156.82 17.9006 156.71 18.1474 156.49 18.3533C156.273 18.5558 156.01 18.657 155.701 18.657ZM162.201 31.2386C161.509 31.2386 160.914 31.1445 160.417 30.9563C159.92 30.7717 159.52 30.5231 159.218 30.2106C158.917 29.8981 158.707 29.5518 158.59 29.1719L160.326 28.7511C160.404 28.9109 160.518 29.0689 160.667 29.2251C160.816 29.3849 161.017 29.5163 161.269 29.6193C161.525 29.7259 161.846 29.7791 162.233 29.7791C162.78 29.7791 163.233 29.646 163.592 29.3796C163.95 29.1168 164.13 28.6836 164.13 28.0799V26.5298H164.034C163.934 26.7287 163.789 26.9329 163.597 27.1424C163.409 27.3519 163.158 27.5277 162.846 27.6697C162.537 27.8118 162.148 27.8828 161.679 27.8828C161.051 27.8828 160.481 27.7354 159.969 27.4407C159.462 27.1424 159.057 26.6985 158.755 26.109C158.457 25.516 158.308 24.7738 158.308 23.8825C158.308 22.984 158.457 22.2259 158.755 21.608C159.057 20.9865 159.463 20.516 159.975 20.1964C160.486 19.8732 161.056 19.7116 161.685 19.7116C162.164 19.7116 162.558 19.7933 162.867 19.9567C163.18 20.1165 163.428 20.31 163.613 20.5373C163.798 20.761 163.938 20.9723 164.034 21.1712H164.14V19.8182H166.042V28.1332C166.042 28.8327 165.875 29.4116 165.541 29.8697C165.207 30.3278 164.751 30.6705 164.172 30.8977C163.593 31.125 162.936 31.2386 162.201 31.2386ZM162.217 26.37C162.626 26.37 162.974 26.2706 163.261 26.0717C163.549 25.8729 163.767 25.587 163.917 25.2141C164.066 24.8413 164.14 24.3938 164.14 23.8718C164.14 23.3569 164.066 22.9059 163.917 22.5188C163.771 22.1317 163.554 21.8317 163.267 21.6186C162.983 21.402 162.633 21.2937 162.217 21.2937C161.788 21.2937 161.429 21.4055 161.141 21.6293C160.854 21.853 160.637 22.1602 160.491 22.5508C160.346 22.9379 160.273 23.3782 160.273 23.8718C160.273 24.3725 160.346 24.8111 160.491 25.1875C160.641 25.5604 160.859 25.8516 161.147 26.0611C161.438 26.267 161.795 26.37 162.217 26.37ZM169.946 23.206V28H168.018V19.8182H169.861V21.2085H169.957C170.145 20.7504 170.445 20.3864 170.857 20.1165C171.273 19.8466 171.786 19.7116 172.397 19.7116C172.961 19.7116 173.453 19.8324 173.872 20.0739C174.295 20.3153 174.621 20.6651 174.852 21.1232C175.087 21.5813 175.202 22.1371 175.199 22.7905V28H173.27V23.0888C173.27 22.5419 173.128 22.114 172.844 21.805C172.564 21.4961 172.175 21.3416 171.678 21.3416C171.34 21.3416 171.04 21.4162 170.777 21.5653C170.518 21.7109 170.314 21.9222 170.165 22.1992C170.019 22.4762 169.946 22.8118 169.946 23.206ZM186.094 24.5589V19.8182H188.023V28H186.153V26.5458H186.068C185.883 27.0039 185.579 27.3786 185.157 27.6697C184.738 27.9609 184.221 28.1065 183.607 28.1065C183.07 28.1065 182.596 27.9876 182.184 27.7496C181.776 27.5082 181.456 27.1584 181.226 26.7003C180.995 26.2386 180.879 25.6811 180.879 25.0277V19.8182H182.808V24.7294C182.808 25.2479 182.95 25.6598 183.234 25.9652C183.518 26.2706 183.891 26.4233 184.352 26.4233C184.637 26.4233 184.912 26.354 185.178 26.2156C185.444 26.0771 185.663 25.8711 185.833 25.5977C186.007 25.3207 186.094 24.9744 186.094 24.5589ZM190.005 31.0682V19.8182H191.902V21.1712H192.014C192.113 20.9723 192.253 20.761 192.434 20.5373C192.616 20.31 192.861 20.1165 193.169 19.9567C193.478 19.7933 193.873 19.7116 194.352 19.7116C194.984 19.7116 195.554 19.8732 196.062 20.1964C196.573 20.516 196.978 20.9901 197.276 21.6186C197.578 22.2436 197.729 23.0107 197.729 23.9197C197.729 24.8182 197.582 25.5817 197.287 26.2102C196.992 26.8388 196.591 27.3182 196.083 27.6484C195.575 27.9787 195 28.1438 194.357 28.1438C193.889 28.1438 193.5 28.0657 193.191 27.9094C192.882 27.7532 192.633 27.565 192.445 27.3448C192.26 27.1211 192.117 26.9098 192.014 26.7109H191.934V31.0682H190.005ZM191.896 23.9091C191.896 24.4382 191.971 24.9016 192.12 25.2994C192.273 25.6971 192.491 26.0078 192.775 26.2315C193.063 26.4517 193.411 26.5618 193.819 26.5618C194.245 26.5618 194.602 26.4482 194.89 26.2209C195.178 25.9901 195.394 25.6758 195.54 25.2781C195.689 24.8768 195.764 24.4205 195.764 23.9091C195.764 23.4013 195.691 22.9503 195.545 22.5561C195.4 22.1619 195.183 21.853 194.895 21.6293C194.608 21.4055 194.249 21.2937 193.819 21.2937C193.407 21.2937 193.058 21.402 192.77 21.6186C192.482 21.8352 192.264 22.1388 192.115 22.5295C191.969 22.9201 191.896 23.38 191.896 23.9091Z" fill="#437EF7"/>
</svg>
