<svg width="137" height="50" viewBox="0 0 137 50" fill="none" xmlns="http://www.w3.org/2000/svg">
<g filter="url(#filter0_d_3150_16614)">
<rect x="2" y="1" width="133" height="46" rx="6" fill="#437EF7"/>
<path d="M27.0046 21.0898C26.9549 20.6246 26.7454 20.2624 26.3761 20.0032C26.0103 19.744 25.5344 19.6143 24.9485 19.6143C24.5366 19.6143 24.1832 19.6765 23.8885 19.8008C23.5938 19.9251 23.3683 20.0937 23.212 20.3068C23.0558 20.5199 22.9759 20.7631 22.9723 21.0366C22.9723 21.2638 23.0238 21.4609 23.1268 21.6278C23.2333 21.7947 23.3771 21.9368 23.5582 22.054C23.7393 22.1676 23.94 22.2635 24.1602 22.3416C24.3803 22.4197 24.6023 22.4854 24.826 22.5387L25.8487 22.7944C26.2607 22.8903 26.6566 23.0199 27.0366 23.1832C27.4201 23.3466 27.7628 23.5526 28.0646 23.8011C28.37 24.0497 28.6115 24.3498 28.7891 24.7013C28.9666 25.0529 29.0554 25.4648 29.0554 25.9371C29.0554 26.5763 28.892 27.1392 28.5653 27.6257C28.2386 28.1087 27.7663 28.4869 27.1484 28.7603C26.5341 29.0302 25.7901 29.1651 24.9165 29.1651C24.0678 29.1651 23.331 29.0337 22.706 28.771C22.0845 28.5082 21.598 28.1246 21.2464 27.6204C20.8984 27.1161 20.7102 26.5018 20.6818 25.7773H22.6261C22.6545 26.1573 22.7717 26.4734 22.9776 26.7255C23.1836 26.9776 23.4517 27.1658 23.782 27.2901C24.1158 27.4144 24.4886 27.4766 24.9006 27.4766C25.3303 27.4766 25.7067 27.4126 26.0298 27.2848C26.3565 27.1534 26.6122 26.9723 26.7969 26.7415C26.9815 26.5071 27.0756 26.2337 27.0792 25.9212C27.0756 25.6371 26.9922 25.4027 26.8288 25.218C26.6655 25.0298 26.4364 24.8736 26.1417 24.7493C25.8505 24.6214 25.5096 24.5078 25.119 24.4084L23.8778 24.0888C22.9794 23.858 22.2692 23.5082 21.7472 23.0394C21.2287 22.5671 20.9695 21.9403 20.9695 21.1591C20.9695 20.5163 21.1435 19.9535 21.4915 19.4705C21.843 18.9876 22.3207 18.6129 22.9244 18.3466C23.5281 18.0767 24.2116 17.9418 24.9751 17.9418C25.7493 17.9418 26.4276 18.0767 27.0099 18.3466C27.5959 18.6129 28.0558 18.984 28.3896 19.4599C28.7234 19.9322 28.8956 20.4755 28.9062 21.0898H27.0046ZM34.8176 20.8182V22.3097H30.1141V20.8182H34.8176ZM31.2753 18.858H33.2036V26.5391C33.2036 26.7983 33.2426 26.9972 33.3208 27.1357C33.4024 27.2706 33.509 27.3629 33.6404 27.4126C33.7718 27.4624 33.9173 27.4872 34.0771 27.4872C34.1979 27.4872 34.308 27.4783 34.4074 27.4606C34.5104 27.4428 34.5885 27.4268 34.6418 27.4126L34.9667 28.9201C34.8637 28.9556 34.7164 28.9947 34.5246 29.0373C34.3364 29.0799 34.1056 29.1048 33.8321 29.1119C33.3492 29.1261 32.9142 29.0533 32.5271 28.8935C32.14 28.7301 31.8328 28.478 31.6056 28.1371C31.3818 27.7962 31.2718 27.37 31.2753 26.8587V18.858ZM38.7846 29.1651C38.2662 29.1651 37.7992 29.0728 37.3837 28.8881C36.9718 28.6999 36.6451 28.4229 36.4036 28.0572C36.1657 27.6914 36.0467 27.2404 36.0467 26.7042C36.0467 26.2425 36.1319 25.8608 36.3024 25.5589C36.4728 25.2571 36.7054 25.0156 37.0002 24.8345C37.2949 24.6534 37.627 24.5167 37.9963 24.4244C38.3691 24.3285 38.7544 24.2592 39.1522 24.2166C39.6316 24.1669 40.0204 24.1225 40.3187 24.0835C40.617 24.0408 40.8336 23.9769 40.9686 23.8917C41.1071 23.8029 41.1763 23.6662 41.1763 23.4815V23.4496C41.1763 23.0483 41.0574 22.7376 40.8194 22.5174C40.5815 22.2972 40.2388 22.1871 39.7914 22.1871C39.3191 22.1871 38.9444 22.2901 38.6674 22.4961C38.394 22.7021 38.2093 22.9453 38.1135 23.2259L36.313 22.9702C36.4551 22.473 36.6895 22.0575 37.0162 21.7237C37.3429 21.3864 37.7424 21.1342 38.2147 20.9673C38.687 20.7969 39.209 20.7116 39.7807 20.7116C40.1749 20.7116 40.5673 20.7578 40.9579 20.8501C41.3485 20.9425 41.7054 21.0952 42.0286 21.3082C42.3517 21.5178 42.611 21.8036 42.8063 22.1658C43.0051 22.5281 43.1046 22.9808 43.1046 23.5241V29H41.2509V27.8761H41.187C41.0698 28.1033 40.9047 28.3164 40.6916 28.5153C40.4821 28.7106 40.2175 28.8686 39.8979 28.9893C39.5819 29.1065 39.2108 29.1651 38.7846 29.1651ZM39.2853 27.7482C39.6724 27.7482 40.008 27.6719 40.2921 27.5192C40.5762 27.3629 40.7946 27.157 40.9473 26.9013C41.1035 26.6456 41.1816 26.3668 41.1816 26.065V25.1009C41.1213 25.1506 41.0183 25.1967 40.8727 25.2393C40.7306 25.282 40.5708 25.3192 40.3933 25.3512C40.2157 25.3832 40.04 25.4116 39.8659 25.4364C39.6919 25.4613 39.541 25.4826 39.4132 25.5004C39.1255 25.5394 38.8681 25.6033 38.6408 25.6921C38.4135 25.7809 38.2342 25.9052 38.1028 26.065C37.9714 26.2212 37.9057 26.4237 37.9057 26.6722C37.9057 27.0273 38.0353 27.2955 38.2946 27.4766C38.5538 27.6577 38.8841 27.7482 39.2853 27.7482ZM45.0435 29V20.8182H46.9132V22.1818H46.9984C47.1475 21.7095 47.4032 21.3455 47.7654 21.0898C48.1312 20.8306 48.5485 20.701 49.0172 20.701C49.1238 20.701 49.2427 20.7063 49.3741 20.717C49.5091 20.7241 49.6209 20.7365 49.7097 20.7543V22.5281C49.628 22.4996 49.4984 22.4748 49.3208 22.4535C49.1468 22.4286 48.9782 22.4162 48.8148 22.4162C48.4632 22.4162 48.1472 22.4925 47.8667 22.6452C47.5897 22.7944 47.3713 23.0021 47.2115 23.2685C47.0517 23.5348 46.9718 23.842 46.9718 24.19V29H45.0435ZM55.5158 20.8182V22.3097H50.8123V20.8182H55.5158ZM51.9735 18.858H53.9018V26.5391C53.9018 26.7983 53.9409 26.9972 54.019 27.1357C54.1007 27.2706 54.2072 27.3629 54.3386 27.4126C54.47 27.4624 54.6156 27.4872 54.7754 27.4872C54.8961 27.4872 55.0062 27.4783 55.1056 27.4606C55.2086 27.4428 55.2868 27.4268 55.34 27.4126L55.665 28.9201C55.562 28.9556 55.4146 28.9947 55.2228 29.0373C55.0346 29.0799 54.8038 29.1048 54.5304 29.1119C54.0474 29.1261 53.6124 29.0533 53.2253 28.8935C52.8382 28.7301 52.5311 28.478 52.3038 28.1371C52.0801 27.7962 51.97 27.37 51.9735 26.8587V18.858ZM62.7774 24.206V29H60.8492V20.8182H62.6922V22.2085H62.7881C62.9763 21.7504 63.2764 21.3864 63.6883 21.1165C64.1038 20.8466 64.6169 20.7116 65.2277 20.7116C65.7923 20.7116 66.2842 20.8324 66.7032 21.0739C67.1258 21.3153 67.4525 21.6651 67.6833 22.1232C67.9177 22.5813 68.0331 23.1371 68.0296 23.7905V29H66.1013V24.0888C66.1013 23.5419 65.9593 23.114 65.6752 22.805C65.3946 22.4961 65.0058 22.3416 64.5086 22.3416C64.1713 22.3416 63.8712 22.4162 63.6084 22.5653C63.3492 22.7109 63.145 22.9222 62.9958 23.1992C62.8502 23.4762 62.7774 23.8118 62.7774 24.206ZM73.5587 29.1598C72.7597 29.1598 72.0672 28.984 71.4813 28.6325C70.8953 28.2809 70.4408 27.7891 70.1176 27.157C69.798 26.5249 69.6382 25.7862 69.6382 24.9411C69.6382 24.0959 69.798 23.3555 70.1176 22.7198C70.4408 22.0842 70.8953 21.5906 71.4813 21.239C72.0672 20.8874 72.7597 20.7116 73.5587 20.7116C74.3577 20.7116 75.0502 20.8874 75.6361 21.239C76.222 21.5906 76.6748 22.0842 76.9944 22.7198C77.3176 23.3555 77.4791 24.0959 77.4791 24.9411C77.4791 25.7862 77.3176 26.5249 76.9944 27.157C76.6748 27.7891 76.222 28.2809 75.6361 28.6325C75.0502 28.984 74.3577 29.1598 73.5587 29.1598ZM73.5693 27.6151C74.0026 27.6151 74.3648 27.4961 74.656 27.2582C74.9472 27.0167 75.1638 26.6935 75.3058 26.2887C75.4514 25.8839 75.5242 25.4329 75.5242 24.9357C75.5242 24.435 75.4514 23.9822 75.3058 23.5774C75.1638 23.169 74.9472 22.8441 74.656 22.6026C74.3648 22.3612 74.0026 22.2404 73.5693 22.2404C73.1254 22.2404 72.7561 22.3612 72.4614 22.6026C72.1702 22.8441 71.9518 23.169 71.8062 23.5774C71.6642 23.9822 71.5931 24.435 71.5931 24.9357C71.5931 25.4329 71.6642 25.8839 71.8062 26.2887C71.9518 26.6935 72.1702 27.0167 72.4614 27.2582C72.7561 27.4961 73.1254 27.6151 73.5693 27.6151ZM80.57 29L78.2582 20.8182H80.2237L81.6619 26.571H81.7365L83.2067 20.8182H85.1509L86.6211 26.5391H86.701L88.1179 20.8182H90.0888L87.7717 29H85.7635L84.2294 23.4709H84.1175L82.5835 29H80.57Z" fill="white"/>
<path d="M101.167 24H112M107.833 19L112.244 23.4107C112.57 23.7362 112.57 24.2638 112.244 24.5893L107.833 29" stroke="white" stroke-width="1.67" stroke-linecap="round"/>
</g>
<defs>
<filter id="filter0_d_3150_16614" x="0" y="0" width="137" height="50" filterUnits="userSpaceOnUse" color-interpolation-filters="sRGB">
<feFlood flood-opacity="0" result="BackgroundImageFix"/>
<feColorMatrix in="SourceAlpha" type="matrix" values="0 0 0 0 0 0 0 0 0 0 0 0 0 0 0 0 0 0 127 0" result="hardAlpha"/>
<feOffset dy="1"/>
<feGaussianBlur stdDeviation="1"/>
<feComposite in2="hardAlpha" operator="out"/>
<feColorMatrix type="matrix" values="0 0 0 0 0.0627451 0 0 0 0 0.0941176 0 0 0 0 0.156863 0 0 0 0.04 0"/>
<feBlend mode="normal" in2="BackgroundImageFix" result="effect1_dropShadow_3150_16614"/>
<feBlend mode="normal" in="SourceGraphic" in2="effect1_dropShadow_3150_16614" result="shape"/>
</filter>
</defs>
</svg>
